<?xml version="1.0" standalone="no"?>
<!DOCTYPE svg PUBLIC "-//W3C//DTD SVG 20010904//EN"
 "http://www.w3.org/TR/2001/REC-SVG-20010904/DTD/svg10.dtd">
<svg version="1.0" xmlns="http://www.w3.org/2000/svg"
 width="1024.000000pt" height="1024.000000pt" viewBox="0 0 1024.000000 1024.000000"
 preserveAspectRatio="xMidYMid meet">
<metadata>
Created by potrace 1.11, written by Peter Selinger 2001-2013
</metadata>
<g transform="translate(0.000000,1024.000000) scale(0.100000,-0.100000)"
fill="#000000" stroke="none">
<path d="M2335 7529 c-444 -48 -838 -223 -1132 -503 -374 -356 -591 -864 -654
-1531 -15 -167 -6 -680 15 -835 81 -587 274 -1033 585 -1354 283 -291 632
-459 1076 -517 119 -15 462 -15 600 0 236 27 485 96 658 183 227 113 383 288
417 468 20 105 -11 218 -79 284 l-37 36 -82 -94 c-201 -231 -442 -368 -762
-432 -124 -24 -435 -30 -565 -10 -543 82 -909 491 -1045 1166 -47 232 -61 372
-67 685 -17 883 131 1458 462 1791 170 172 371 269 638 308 130 20 322 20 419
2 331 -64 549 -338 575 -723 l6 -93 57 0 c165 0 356 94 439 214 53 77 74 158
68 266 -18 351 -328 587 -887 675 -126 20 -569 29 -705 14z"/>
<path d="M4397 7473 c-4 -3 -7 -66 -7 -138 l0 -132 138 -6 c202 -10 293 -38
373 -118 52 -52 85 -124 99 -214 7 -48 10 -591 8 -1755 -3 -1867 2 -1723 -67
-1832 -68 -107 -173 -149 -396 -157 l-150 -6 -3 -137 -3 -138 756 0 756 0 -3
138 -3 137 -105 6 c-115 7 -147 13 -201 40 -92 46 -148 131 -169 257 -7 47
-10 575 -8 1798 l3 1731 746 -2051 746 -2051 179 -3 179 -2 729 2037 c401
1121 735 2049 742 2063 17 33 20 -3374 3 -3496 -32 -230 -144 -323 -391 -324
l-88 0 0 -140 0 -140 865 0 865 0 0 133 0 134 -117 6 c-197 10 -287 35 -368
102 -47 38 -99 128 -116 200 -14 62 -21 3309 -7 3424 19 149 83 251 191 304
69 33 202 57 323 57 l94 0 0 135 0 135 -507 3 c-280 1 -604 1 -722 1 l-213 -2
-370 -1028 c-600 -1673 -806 -2247 -881 -2461 -40 -112 -75 -203 -78 -203 -3
0 -38 89 -77 198 -136 381 -1244 3437 -1257 3470 l-14 32 -734 0 c-403 0 -737
-3 -740 -7z"/>
</g>
</svg>
