<?xml version="1.0" standalone="no"?>
<!DOCTYPE svg PUBLIC "-//W3C//DTD SVG 20010904//EN"
 "http://www.w3.org/TR/2001/REC-SVG-20010904/DTD/svg10.dtd">
<svg version="1.0" xmlns="http://www.w3.org/2000/svg"
 width="1150.000000pt" height="1150.000000pt" viewBox="0 0 1150.000000 1150.000000"
 preserveAspectRatio="xMidYMid meet">
<metadata>
Created by potrace 1.14, written by Peter Selinger 2001-2017
</metadata>
<g transform="translate(0.000000,1150.000000) scale(0.100000,-0.100000)"
fill="#000000" stroke="none">
<path d="M3015 11079 c-737 -71 -1374 -581 -1609 -1289 -66 -198 -103 -452
-94 -647 l5 -103 -140 0 c-166 0 -210 -14 -255 -83 l-27 -41 0 -3330 0 -3331
23 -37 c13 -20 40 -47 60 -60 36 -22 45 -23 321 -26 l283 -3 2017 -851 2016
-850 60 4 c42 2 70 11 92 26 20 14 135 184 318 469 158 247 289 449 290 451 2
2 352 -73 779 -167 426 -94 796 -171 822 -171 56 0 117 32 144 75 10 17 80
237 155 490 75 253 141 475 146 493 l11 32 191 0 c300 1 425 24 612 114 308
148 521 406 613 744 l26 97 4 603 3 602 73 0 c227 0 449 135 553 335 77 148
74 109 71 982 l-3 778 -26 72 c-56 152 -167 278 -309 353 -94 48 -180 70 -282
70 l-78 0 0 564 c0 601 -4 658 -52 806 -56 175 -160 342 -292 468 -114 109
-226 182 -376 244 l-35 15 -179 554 c-112 348 -188 568 -205 593 -14 21 -42
47 -61 57 -67 36 -115 27 -405 -76 -147 -53 -269 -94 -270 -93 -2 2 -46 137
-99 300 -54 163 -106 308 -117 323 -30 37 -91 65 -142 65 -33 0 -376 -118
-1338 -460 -712 -253 -1296 -460 -1300 -460 -3 0 -25 49 -48 110 -106 270
-290 533 -505 721 -399 351 -915 518 -1441 468z m347 -370 c655 -70 1188 -555
1330 -1207 17 -77 21 -134 22 -277 l1 -180 -220 -3 -220 -2 -1 162 c-1 143 -4
175 -27 263 -82 308 -291 565 -570 700 -353 170 -751 144 -1075 -71 -164 -110
-319 -296 -392 -472 -63 -150 -83 -250 -84 -424 l-1 -158 -217 0 -217 0 -7 57
c-10 84 3 279 27 396 94 468 397 859 824 1068 270 132 536 179 827 148z m4365
-1046 l201 -618 -1416 -3 c-778 -1 -1416 -1 -1418 1 -1 1 -4 85 -5 186 l-2
183 1214 433 c668 238 1217 433 1220 434 3 1 96 -277 206 -616z m-4361 221
c237 -52 439 -246 515 -494 18 -58 23 -99 24 -185 0 -60 -3 -122 -8 -137 l-7
-28 -690 0 -689 0 -5 33 c-15 96 -16 134 -6 209 15 107 42 186 91 270 159 270
465 401 775 332z m5228 -475 c64 -196 116 -359 116 -362 0 -4 -88 -7 -195 -7
l-194 0 -100 307 c-56 169 -100 308 -98 309 11 10 344 121 349 116 4 -4 59
-167 122 -363z m356 -767 c134 -42 225 -97 331 -202 82 -82 102 -108 142 -190
84 -171 81 -142 85 -787 l3 -572 -1208 -3 -1208 -3 -70 -23 c-117 -40 -184
-81 -270 -167 -88 -88 -130 -156 -167 -275 l-23 -75 0 -760 0 -760 23 -75 c78
-251 280 -424 536 -459 52 -7 460 -11 1232 -11 l1155 0 -3 -572 c-4 -647 -1
-620 -84 -786 -97 -193 -279 -340 -497 -399 -58 -16 -288 -18 -3477 -21 -1878
-2 -3587 0 -3797 4 l-383 6 0 3074 0 3074 193 3 c105 1 1816 2 3802 2 l3610 0
75 -23z m1116 -2164 c29 -15 66 -44 83 -65 61 -74 61 -68 61 -825 0 -452 -4
-704 -11 -731 -15 -63 -68 -128 -130 -162 l-54 -30 -1414 -3 c-1550 -3 -1472
-5 -1557 56 -21 16 -52 53 -69 83 l-30 54 -3 708 c-2 453 1 721 7 745 25 91
106 171 194 192 18 5 671 7 1452 7 l1420 -2 51 -27z m-5596 -4678 c825 -181
1502 -330 1505 -330 15 0 -10 -42 -193 -327 l-193 -302 -67 29 c-37 16 -719
303 -1517 640 -797 336 -1452 613 -1454 616 -2 2 91 4 208 4 l212 0 1499 -330z
m3566 308 c-14 -57 -195 -661 -198 -664 -5 -4 -3090 674 -3097 681 -2 3 739 5
1648 5 l1653 0 -6 -22z"/>
<path d="M7875 6235 c-339 -74 -566 -391 -524 -728 19 -154 82 -279 196 -394
131 -130 328 -204 505 -189 99 8 215 45 297 93 85 51 207 180 249 266 114 232
90 505 -64 704 -153 199 -422 300 -659 248z m250 -389 c217 -103 225 -390 15
-514 -39 -24 -56 -27 -130 -27 -69 0 -93 5 -127 23 -212 112 -214 401 -4 509
81 43 169 46 246 9z"/>
</g>
</svg>
